<?xml version="1.0" encoding="utf-8"?>
<!-- Generator: Adobe Illustrator 24.3.0, SVG Export Plug-In . SVG Version: 6.00 Build 0)  -->
<svg version="1.1" id="Layer_1" xmlns="http://www.w3.org/2000/svg" xmlns:xlink="http://www.w3.org/1999/xlink" x="0px" y="0px"
	 viewBox="0 0 100 100" style="enable-background:new 0 0 100 100;" xml:space="preserve">
<style type="text/css">
	.st0{fill:#E76B31;}
	.st1{fill:#333333;}
</style>
<g>
	<g>
		<g>
			<path class="st0" d="M18.6,50.1c-4.6,0-8.4-3.5-8.4-8v-3.8c0-4.4,3.8-7.9,8.4-7.9s8.3,3.5,8.3,7.9v3.8
				C27,46.6,23.2,50.1,18.6,50.1z M18.6,33.5c-2.8,0-5.2,2.2-5.2,4.9v3.8c0,2.7,2.3,4.9,5.2,4.9c2.8,0,5.1-2.2,5.1-4.9v-3.8
				C23.7,35.7,21.4,33.5,18.6,33.5z"/>
			<path class="st0" d="M37.3,49.9h-1.8c-3.2,0-5.8-2.5-5.8-5.8V31.5c0-0.5,0.3-0.8,0.8-0.8H32c0.7,0,0.8,0.5,0.8,0.9v12.5
				c0,1.5,1.2,2.6,2.7,2.6h1.8c1.7,0,3-1.3,3-2.9V31.7c0-0.5,0-0.9,0.8-0.9h1.6c0.5,0,0.8,0.3,0.8,0.8v12.3
				C43.4,47.2,40.6,49.9,37.3,49.9z"/>
			<path class="st0" d="M54.2,49c0,0.5,0,0.9-0.8,0.9h-1.7c-0.7,0-0.8-0.5-0.8-0.9V33.8h-4.7c-0.8,0-1-0.2-1-0.9v-1.2
				c0-0.5,0-0.9,0.8-0.9h13c0.7,0,0.8,0.5,0.8,0.9v1.2c0,0.8-0.1,0.9-0.9,0.9h-4.6L54.2,49L54.2,49z"/>
		</g>
		<g>
			<path class="st1" d="M21,58.4v2.8c0,3-2.5,5.4-5.4,5.4h-4.8c-0.3,0-0.5-0.2-0.5-0.5V53.5c0-0.3,0.3-0.5,0.6-0.5h4.8
				C18.5,52.9,21,55.4,21,58.4z M12.4,64.4h3.1c1.7,0,3.2-1.4,3.2-3.2v-2.8c0-1.7-1.4-3.2-3.2-3.2h-3.1
				C12.4,55.2,12.4,64.4,12.4,64.4z"/>
			<path class="st1" d="M28.7,66.8c-3.3,0-6-2.5-6-5.7v-2.7c0-3.2,2.7-5.7,6-5.7s6,2.5,6,5.7v2.7C34.7,64.3,32,66.8,28.7,66.8z
				 M28.7,54.9c-2,0-3.7,1.6-3.7,3.5v2.7c0,1.9,1.7,3.5,3.7,3.5s3.7-1.6,3.7-3.5v-2.7C32.4,56.5,30.7,54.9,28.7,54.9z"/>
			<path class="st1" d="M42.3,66.8c-3.3,0-6-2.5-6-5.7v-2.7c0-3.2,2.7-5.7,6-5.7s6,2.5,6,5.7v2.7C48.3,64.3,45.6,66.8,42.3,66.8z
				 M42.3,54.9c-2,0-3.7,1.6-3.7,3.5v2.7c0,1.9,1.7,3.5,3.7,3.5S46,63,46,61.1v-2.7C46,56.5,44.3,54.9,42.3,54.9z"/>
			<path class="st1" d="M59.7,55.8c0,1.3-0.7,2.1-1.7,2.7c0.4,1,0.7,1.9,1,2.8c0.5,1.5,1.1,3,1.7,4.6c0.2,0.5-0.1,0.7-0.5,0.7H59
				c-0.4,0-0.5-0.2-0.5-0.4L56,59.7c-1.2,0.6-2.2,1.2-3.5,1.8V66c0,0.3,0,0.7-0.5,0.7h-1.2c-0.3,0-0.5-0.3-0.5-0.5V53.6
				c0-0.3,0.2-0.5,0.6-0.5H57C58.4,52.9,59.7,54.3,59.7,55.8z M52.5,58.9c1.4-0.7,4.4-2.2,4.8-2.7l0,0c0.1-0.1,0.1-0.2,0.1-0.4
				c0-0.4-0.3-0.7-0.7-0.7h-4.2C52.5,55.1,52.5,58.9,52.5,58.9z"/>
		</g>
	</g>
	<g>
		<path class="st1" d="M80.2,30.3c0.6,0.1,1.2,0.4,1.7,0.8c0.9,0.8,1.2,2.1,0.9,3.3c-0.3,1.1-1.4,1.9-2.5,2
			c-1.5,0.2-2.7-0.7-3.2-1.9c-0.5-1.3-0.1-2.8,1-3.7c0.4-0.3,0.9-0.5,1.5-0.6C79.7,30.3,80,30.3,80.2,30.3z"/>
		<path class="st1" d="M75.7,37.5c0.6-0.4,1.1-0.7,1.7-0.7c1.6-0.2,3.1,1,3.4,2.6c0,0.1,0.1,0.3,0.1,0.4c-0.1,0.6,0.2,0.9,0.5,1.4
			c0.8,1.1,1.6,2.2,2.4,3.4c0.1,0.2,0.3,0.3,0.5,0.2c1.7,0,3.3,0,5,0c1,0,1.7,0.7,1.7,1.6c0,0.5-0.2,1-0.7,1.2
			C90,47.8,90,47.9,90,48.2c0,5.8,0,11.7,0,17.6c0,0.1,0,0.2,0,0.3c0,0.4-0.3,0.7-0.6,0.7c-0.3,0-0.6-0.3-0.7-0.7c0-0.1,0-0.2,0-0.3
			c0-5.8-0.1-11.7-0.1-17.5c0-0.4-0.1-0.4-0.4-0.4c-1.6,0-3.3,0-4.9,0c-0.8,0-1.3-0.3-1.8-0.9c-0.4-0.6-0.9-1.2-1.3-1.9
			c-0.1,0.4-0.1,0.8-0.2,1.2c-0.3,1.8-0.6,3.7-0.9,5.5c0,0.3,0,0.5,0.3,0.7c1.1,0.9,2.1,1.9,3.2,2.9c0.6,0.5,0.8,1.2,0.8,2
			c-0.2,2.2-0.3,4.5-0.5,6.7c0,0.3,0,0.6-0.1,1c-0.1,1-1,1.7-1.9,1.7c-1,0-1.9-0.8-1.8-1.8c0-1.1,0.1-2.1,0.2-3.2
			c0.1-1.3,0.2-2.5,0.3-3.8c0-0.1,0-0.3-0.1-0.4c-1.1-1-2.2-2-3.3-3c0,0,0,0-0.1,0c-0.3,1.1-0.6,2.2-0.9,3.2
			c-0.1,0.5-0.2,0.9-0.4,1.4c-0.1,0.3-0.2,0.7-0.5,1c-1.4,1.9-2.8,3.8-4.3,5.7c-0.6,0.9-1.5,1.1-2.4,0.7c-1-0.5-1.5-1.7-0.9-2.7
			c0.7-1.1,1.5-2.1,2.3-3.1c0.6-0.8,1.2-1.7,1.9-2.5c0.1-0.2,0.2-0.4,0.3-0.6c0.6-2.2,1.2-4.4,1.7-6.6c0.1-0.2,0.2-0.5,0.3-0.7
			c-0.2-0.1-0.5-0.1-0.7-0.2c-1.3-0.5-2.1-1.5-2.1-3c0-4.4,0-8.7,0-13.1c0-0.8,0.4-1.2,1.3-1.2s1.9,0,2.8,0s1.3,0.4,1.3,1.3
			c0,1,0,2,0,3C75.7,37.2,75.7,37.3,75.7,37.5z"/>
	</g>
	<path class="st0" d="M64.8,66.7L64.8,66.7c-0.4,0-0.7-0.3-0.7-0.7V30.8c0-0.4,0.3-0.7,0.7-0.7l0,0c0.4,0,0.7,0.3,0.7,0.7V66
		C65.5,66.4,65.2,66.7,64.8,66.7z"/>
</g>
</svg>
